<svg height="21" viewBox="0 0 143 21" width="143" xmlns="http://www.w3.org/2000/svg"><g fill="none" fill-rule="evenodd"><text fill="#000" font-family="SFUIText-Semibold, SF UI Text" font-size="18" font-weight="500" letter-spacing="-.45"><tspan x="48" y="17">.ticketshop</tspan></text><g fill="#e2002a" fill-rule="nonzero" transform="translate(0 2)"><path d="m32.9104809 15.8137384h6.9569752c.9748628 0 2.6853038-.1454973 3.7443593-1.0503087 1.3736703-1.1776188 1.6085236-2.4370799 1.6085236-3.2327683 0-1.82780986-.9305508-3.17365993-1.8389457-3.86477213 1.1210922-.92299853 1.457863-2.22792749 1.457863-3.15092602 0-.63200392-.2968901-4.01026947-5.561149-4.01026947h-6.3676264zm3.1727352-12.69009313h3.7665153c1.0989362 0 1.9674503.41830475 1.9674503 1.74142087 0 1.21853994-.7843214 1.74596767-2.1358357 1.74596767h-3.5936987v-3.48738854zm0 6.11543361h4.3159834c.59378 0 1.7990649.08184224 1.7990649 1.80507592 0 2.1006174-1.4401382 2.1415385-2.3884138 2.1415385h-3.7222033v-3.94661442z"/><path d="m18.256521 15.8137384h6.9569752c.9748628 0 2.6853038-.1454973 3.7443593-1.0503087 1.3736703-1.1776188 1.6085236-2.4370799 1.6085236-3.2327683 0-1.82780986-.9305509-3.17365993-1.8389457-3.86477213 1.1210922-.92299853 1.4578629-2.22792749 1.4578629-3.15092602 0-.63200392-.29689-4.01026947-5.5611489-4.01026947h-6.3676264zm3.1727352-12.69009313h3.7665152c1.0989362 0 1.9674504.41830475 1.9674504 1.74142087 0 1.21853994-.7843215 1.74596767-2.1358358 1.74596767h-3.5936986v-3.48738854zm0 6.11543361h4.3159833c.5937801 0 1.799065.08184224 1.799065 1.80507592 0 2.1006174-1.4401382 2.1415385-2.3884138 2.1415385h-3.7222033v-3.94661442z"/><path d="m11.2729586.50924057v-.00909358l-5.47695631 6.1199804h3.66902898l5.46366273-6.11088682z"/><path d="m13.8962257 2.87357178-2.118111 2.368878c.5716241.82296913.8862389 1.80507594.8862389 2.84174424 0 1.31402254-.4962937 2.54620288-1.4002574 3.47374818s-2.10481735 1.4413327-3.38543253 1.4413327c-1.28061519 0-2.48146888-.5137874-3.38543254-1.4413327s-1.40025743-2.15972564-1.40025743-3.47374818c0-2.67805977 2.10038615-4.86506614 4.70149727-4.91053405l2.49033123-2.78263596c-.7710278-.2500735-1.57750518-.39102401-2.40613853-.39102401-4.34257053 0-7.87866367 3.62833905-7.87866367 8.08419402 0 2.15972558.81977097 4.19214108 2.30865229 5.71986278s3.46519403 2.368878 5.57444257 2.368878c2.10481735 0 4.08113004-.8411563 5.57001134-2.368878 1.4888814-1.5277217 2.3086523-3.5555904 2.3086523-5.71531599-.0044312-1.93238608-.6646791-3.75564919-1.8655328-5.21516903"/></g></g></svg>