<svg height="28" viewBox="0 0 158 28" width="158" xmlns="http://www.w3.org/2000/svg"><g fill="none" fill-rule="evenodd" transform="translate(1 1)"><path d="m53.6352801 21.9483125c-1.1170557 0-2.0167737.9178755-2.0167737 2.0349428 0 .5407134.1998604 1.0530539.5814122 1.4353324.3837495.3815809.8946481.5814123 1.4353615.5814123.5414227 0 1.0509026-.1998314 1.4353615-.5814123.3837146-.3822785.5814122-.894619.5814122-1.4353324 0-.4912933-.1555277-.9586325-.4723974-1.3263757l-.545074.5996104c.1533533.2093084.2361987.4622228.2361987.7267653-.0000116.3270444-.130091.6395535-.3633826.8721184-.2311114.2332626-.5428937.3633827-.8721184.3633827-.3270618 0-.6380999-.1301201-.8721184-.3633827-.2318207-.2325649-.3633826-.545074-.3633826-.8721184.0000116-.6795546.5567022-1.235501 1.235501-1.235501h.0181691l.6177505-.6904271c-.2049361-.0697694-.4120759-.1090147-.6359196-.1090147zm-25.9091834.0726765v3.7609814h.4723974v-1.1809646c0-.619204.2281985-1.0538097.7631036-1.0538097.4098957.0247101.545074.3146603.545074.9084567v1.3263176h.4723975v-1.5262072c0-.6853106-.303067-1.0901479-.9629641-1.0901479-.3553882 0-.6475537.1664583-.817611.4360592v-1.5806855zm16.5157417 0v1.5625454h-.0181691c-.1446263-.235472-.3902672-.4179191-.8357801-.4179191-.7398471 0-1.1083171.6061223-1.1083171 1.2900375 0 .6962412.3197883 1.3808541 1.090148 1.3808541.454955 0 .7471263-.2275066.8721183-.4179192h.0181692v.3633827h.4542283v-3.7609814zm10.2655601.0544783-1.2173319 1.3263758h.9447949l1.2173319-1.3263758zm1.9622663 0v3.8518562h1.7260676c.2427571 0 .6642635-.0450595.9266258-.272508.3423181-.294369.3997209-.5996104.3997209-.7994418 0-.458618-.228931-.8074653-.4542283-.9811332.2783628-.2333207.3633827-.5501904.3633827-.7813018-.0000058-.1569813-.0697695-1.0174714-1.3808541-1.0174714zm3.8518562 0v3.8518562h1.7442367c.242728 0 .6635368-.0450595.9266258-.272508.3423065-.294369.3997209-.5996104.3997209-.7994418 0-.458618-.2282043-.8074653-.4542283-.9811332.2783569-.2333207.3633827-.5501904.3633827-.7813018-.0000117-.1569813-.0879386-1.0174714-1.3990233-1.0174714zm-57.57798194.0545365v.5268758h.52690485v-.5268758zm-2.74353906.1634931v3.4884735h1.96226634v-.4360592h-1.45353062v-1.1628245h1.3263467v-.4360592h-1.3263467v-1.0174714h1.45353062v-.4360592zm8.59399983 0v2.0349429c0 .9804355.50292159 1.5080671 1.36268496 1.5080671.86049011 0 1.36268491-.5276316 1.36268491-1.5080671v-2.0349429h-.5087357v1.9804646c0 .6707753-.2085816 1.1264862-.85394921 1.1264862-.64464084 0-.85394925-.4557109-.85394925-1.1264862v-1.9804646zm7.30399137.1998895-.4723974.1453531v.5814122h-.5814123v.3815228h.5814123v1.4898689c0 .5101892.2965144.7449635.7812727.7449635.1504404 0 .2950609-.0429082.3997209-.0726766v-.3997209c-.0697695.0457572-.1642431.0908166-.3088753.0908166-.2158493 0-.3997209-.1591325-.3997209-.4541992v-1.3990523h.6722579v-.3815228h-.6722579zm41.3529463.2543679h.9447949c.2747057 0 .4905666.1046542.4905666.4360592 0 .3052414-.1896857.4360592-.5269048.4360592h-.9084567zm3.8700253 0h.9266258c.2739847 0 .4905666.1046542.4905666.4360592 0 .3052414-.1904125.4360592-.5269049.4360592h-.8902875zm-55.70656122.417861c-.35538824 0-.69550859.1831448-.83578011.4723974h-.01816913v-.417861h-.45422832v2.5618187h.47239745v-1.1809646c0-.619204.22747173-1.0538097.76310358-1.0538097.40989564.0247101.54506817.3146603.54507398.9084567v1.3263176h.47239746v-1.5262072c0-.6853106-.28488619-1.0901479-.94479491-1.0901479zm8.04892582 0c-.3539347 0-.6962411.1831448-.8357801.4723974h-.0181691v-.417861h-.4542283v2.5618187h.4723974v-1.1809646c0-.619204.2463735-1.0538097.7812727-1.0538097.4098957.0247101.5450798.3146603.545074.9084567v1.3263176h.4542283v-1.5262072c0-.6853106-.2841652-1.0901479-.9447949-1.0901479zm4.7239746 0c-.7202245 0-1.1991628.5356551-1.1991628 1.2900375 0 .8314195.4215239 1.3808541 1.3263467 1.3808541.4200703 0 .6191982-.0981424.7994418-.1635513v-.4723974c-.1148289.0952353-.4709439.2543678-.7812727.2543678-.4455071 0-.8357743-.349545-.8357801-.8539202h1.8169133c0-.8205471-.2761708-1.4353905-1.1264862-1.4353905zm2.8707229 0c-.2696299 0-.5472601.1897148-.6722579.4542574v-.399721h-.4360592v2.5618187h.4542284v-1.1628245c0-.6395535.2885316-1.0356115.7085961-1.0356115.0799442 0 .1693364.0014535.2543679.0363383v-.4179192c-.1002936-.0195935-.1686096-.0363382-.3088753-.0363382zm2.1257886 0c-.3546615 0-.6955202.1831448-.8357801.4723974v-.417861h-.4542283v2.5618187h.4723974v-1.1809646c0-.619204.2274717-1.0538097.7631036-1.0538097.4106224.0247101.545074.3146603.545074.9084567v1.3263176h.4723974v-1.5262072c0-.6853106-.3023402-1.0901479-.962964-1.0901479zm2.7798773 0c-.7202244 0-1.1809936.5356551-1.1809936 1.2900375 0 .8314195.4033547 1.3808541 1.3081775 1.3808541.4200704 0 .619925-.0981424.7994419-.1635513v-.4723974c-.1148289.0952353-.4709498.2543678-.7812727.2543678-.4440536 0-.8357801-.349545-.8357801-.8539202h1.8169132c0-.8205471-.2761766-1.4353905-1.1264862-1.4353905zm6.0684904 0c-.3750109 0-.6191983.1417483-.7994419.4360592h-.0181691v-.3815228h-.4360592v2.5618187h.4723975v-1.2899794c0-.4738509.1918718-.9447949.6722579-.9447949.3800982 0 .4542341.393151.4542283.7085671v1.5262072h.4542283v-1.2899794c0-.4738509.1918602-.9447949.6722579-.9447949.3800983 0 .4542225.393151.4542283.7085671v1.5262072h.4723975v-1.6352219c0-.5559464-.2223844-.9811332-.8721184-.9811332-.2296578 0-.6242914.1264571-.7994418.4905956-.1351784-.3452426-.4316986-.4905956-.7267653-.4905956zm4.2152388 0c-.7202244 0-1.1991628.5356551-1.1991628 1.2900375 0 .8314195.4215239 1.3808541 1.3263467 1.3808541.4207971 0 .6191982-.0981424.7994419-.1635513v-.4723974c-.1155557.0952353-.470944.2543678-.7812728.2543678-.4447803 0-.8357801-.349545-.8357801-.8539202h1.8169133c0-.8205471-.2769034-1.4353905-1.1264862-1.4353905zm3.0524143 0c-.3546615 0-.696247.1831448-.8357801.4723974v-.417861h-.4542283v2.5618187h.4723974v-1.1809646c0-.619204.2281985-1.0538097.7631036-1.0538097.4106224.0247101.545074.3146603.545074.9084567v1.3263176h.4723974v-1.5262072c0-.6853106-.3023401-1.0901479-.962964-1.0901479zm7.2313149 0c-.7202245 0-1.1991628.5356551-1.1991628 1.2900375 0 .8314195.4215064 1.3808541 1.3263467 1.3808541.4207971 0 .6199424-.0981424.7994418-.1635513v-.4723974c-.1148289.0952353-.4716707.2543678-.7812727.2543678-.4455071 0-.8357917-.349545-.8357801-.8539202h1.8169133c0-.8205471-.2761708-1.4353905-1.1264862-1.4353905zm2.8707229 0c-.2703566 0-.54726.1897148-.6722579.4542574v-.399721h-.4360592v2.5618187h.4723975v-1.1628245c0-.6395535.2703567-1.0356115.690427-1.0356115.0799442 0 .1693538.0014535.2543679.0363383v-.4179192c-.0995668-.0195935-.1686095-.0363382-.3088753-.0363382zm-46.62199478.0545364v2.5618187h.47239746v-2.5618187zm15.38925548.3270444c.4048083 0 .6359197.3183232.6359197.7085671h-1.3081776c.0348847-.3299514.2114829-.7085671.6722579-.7085671zm7.794558 0c.405535 0 .6359197.3183232.6359197.7085671h-1.3263467c.0348847-.3299514.2303904-.7085671.690427-.7085671zm10.2837292 0c.4048083 0 .6359196.3183232.6359196.7085671h-1.3263467c.0356115-.3299514.2303905-.7085671.6904271-.7085671zm7.2313148 0c.5101893 0 .7631036.4883863.7631036.962935 0 .4251868-.2332975.9447949-.7631036.9447949-.5051018 0-.6998866-.563214-.690427-.962935-.0094479-.4644321.1802494-.9447949.690427-.9447949zm3.0524144 0c.4048082 0 .6359196.3183232.6359196.7085671h-1.3263467c.0356115-.3299514.230373-.7085671.6904271-.7085671zm10.7197883.7267654h1.0719789c.1482717 0 .4542283.0232564.4542283.4541992.0000174.5283875-.3633827.5269339-.5995814.5269339h-.9266258zm3.8700253 0h1.0719789c.1489868 0 .4360591.0232564.4360591.4541992 0 .5283875-.3452135.5269339-.5814122.5269339h-.9266258z" fill="#373f46"/><path d="m98.3640513 23.8001105s4.0640717 1.987674 10.7786567 1.987674c10.469054 0 32.511846-4.1083752 47.174336-16.20105233l-13.77511.02982645c-.978226 1.96808048-9.990116 9.16887118-22.487572 12.68129888-3.917265 1.1010785-13.959708 3.1948603-21.6903107 1.502253z" fill="#b3b9bd" fill-rule="nonzero" stroke="#b3b9bd" stroke-width=".95375"/><path d="m89.4778918 22.9788657c25.6657172 3.6577807 36.3113752 1.938254 53.2515482-19.77237714l-13.020728-.01453531s-6.046687 27.47388005-38.1144796 17.53463765z" fill="#fff200"/><path d="m24.0014245 0c-4.697811 0-8.4304777 3.57783657-8.4304777 8.17610977 0 4.59751733 3.7326667 8.17610973 8.4304777 8.17610973 4.6978109 0 8.4123085-3.5785924 8.4123085-8.17610973 0-4.5982732-3.7144976-8.17610977-8.4123085-8.17610977zm79.6534785.23616966c-3.572052 0-6.5052766 1.53132358-6.5045498 4.48780487.0036338 6.39698827 10.1645568 3.02479724 10.1202068 6.52268957-.021076 1.7478997-1.240582 2.1040147-3.742841 2.1076195-1.824908.0022093-3.465217 0-5.2690487 0l-2.598186 2.7435681h7.7400507c3.596761 0 6.89991-1.3648653 6.92244-4.9965406.037791-6.52199193-10.113667-2.99933139-10.120207-6.52268963-.002181-1.13305619.725305-1.87435681 3.288613-1.88958981 1.524026-.00872119 3.562603.01814006 5.305386.01814006l2.30748-2.47100206c-2.06692 0-4.849699 0-7.449344 0zm-62.8106924.0181982c-3.5735051 0-6.5052821 1.51382308-6.5045496 4.46960667.0036339 6.39768597 10.1630978 3.02549493 10.120207 6.52268957-.0218029 1.7485974-1.2413151 2.1040147-3.7428413 2.1076195-1.8249077.0022093-3.4659438 0-5.2690486 0l-2.598186 2.7435681c3.7086834 0 5.5408588.01814 7.7400506.01814 3.5974883 0 6.9013809-1.3837611 6.9224396-5.0146806.0392454-6.5212361-10.1136661-2.9986337-10.1202069-6.52268963-.0021803-1.13230036.7434867-1.87435681 3.3067821-1.88958981 1.5247537-.00947702 3.5444286.03633826 5.2872177.03633826l2.3074798-2.47100206c-2.0676473 0-4.8504317 0-7.4493444 0zm-40.58984274.07267653v15.69813081h2.90706125v-4.9420042h5.57792378c3.49792141 0 5.63243121-2.30314832 5.63243121-5.37806329 0-3.07351958-2.1345039-5.37806332-5.63243121-5.37806332zm50.90991014 0-2.5800168 2.76170819h5.2145411v12.93642262h2.9070612v-12.93642262h4.7603128v-2.76170819zm12.3368412 0v15.69813081h9.4479491c2.7478996 0 4.8329893-1.7427833 4.8329893-4.5422833 0-2.0000581-1.1911741-3.30968919-2.8162156-3.83371605 1.1751795-.52542225 1.9259223-1.67446728 1.9259281-3.12509085 0-2.79729062-2.1243408-4.19704061-4.5241141-4.19704061zm16.7519405 0v9.30259601c0 3.622896 2.7609756 6.7225791 6.9587779 6.7225791 4.1977964 0 6.976947-3.0996831 6.976947-6.7225791v-9.30259601h-2.8888922v8.68484549c0 2.87508362-1.8132852 4.59676152-4.0880548 4.59676152-2.2478852 0-4.0698916-1.7216779-4.0698858-4.59676152v-8.68484549zm-56.2516352 2.4346638c2.8234832 0 5.3780633 2.36559202 5.3780633 5.41440158 0 3.04729793-2.5545801 5.43254163-5.3780633 5.43254163-2.8234833 0-5.3780634-2.3852437-5.3780634-5.43254163 0-3.04880956 2.5545801-5.41440158 5.3780634-5.41440158zm-20.83999539.32704439h5.34172505c2.04947814 0 2.97973774 1.21660513 2.97973774 2.61635513 0 1.39899415-.9302596 2.61635512-2.97973774 2.61635512h-5.34172505zm63.24675139 0h5.6506003c1.2747463 0 1.9440972.81903544 1.9440972 1.74423675 0 .94839966-.669345 1.76237681-1.9440972 1.76237681h-5.6506003zm0 6.26832175h6.2138434c1.2987296 0 2.2529725.83723367 2.2529725 1.96226637 0 1.0988691-.9542313 1.9622663-2.2529725 1.9622663h-6.2138434z" fill="#373f46" fill-rule="nonzero" stroke="#373f46" stroke-width=".95375"/></g></svg>