<svg height="30" viewBox="0 0 225 30" width="225" xmlns="http://www.w3.org/2000/svg"><path d="m217.49826 13.305818h7.472899v-4.1422178h-7.472899v-8.3968175h-4.909995v8.3968175h-4.610642v4.1422178h4.610642v8.2824465c0 5.2093486 2.989557 8.4117355 7.814022 8.4117355 1.750373 0 2.774739-.1710592 5.03829-.8543013l-.683242-4.2267529c-1.067131.2993536-2.305321.512183-3.416211.512183-2.390851 0-3.842864-1.1526604-3.842864-3.8428643zm-11.47091 7.8985579c.128294-.7687717.128294-1.5375435.128294-2.2625559-.042765-6.0636499-4.269518-10.247638-9.862755-10.247638-6.447538 0-10.717056 4.5688712-10.717056 10.5887618 0 5.9771258 4.269518 10.545997 10.717056 10.545997 4.610642 0 8.325211-2.3480855 9.477872-6.0626554h-5.251119c-.726007 1.23819-2.135256 1.8786674-4.099453 1.8786674-3.415216 0-5.293884-1.9214322-5.891596-4.4405769zm-4.867231-3.671805h-10.674291c.554948-2.6046743 2.39085-4.6544008 5.550472-4.6544008 2.945798 0 4.738936 1.7941322 5.123819 4.6544008zm-17.080059 11.7662854-7.8001-10.014918 7.8001-10.01392338h-6.009946l-7.625062 10.01392338 7.625062 10.014918zm-20.18001.0606663h4.909995v-28.50223767h-4.909995zm-16.433615-10.1213326c0-3.4162109 2.30532-6.1064148 5.807061-6.1064148 1.591248 0 2.924913.5648931 3.811039 1.5176529l3.322725-3.322725c-1.804078-1.68075581-4.319244-2.67727495-7.133764-2.67727495-6.06365 0-10.717056 4.56787665-10.717056 10.58876185 0 5.9771258 4.653406 10.545997 10.717056 10.545997 2.819493 0 5.337643-.9875684 7.142715-2.6693188l-3.317753-3.3177523c-.886126.9736449-2.224763 1.5464942-3.824962 1.5464942-3.501741 0-5.807061-2.6902038-5.807061-6.1054201zm-8.278469-16.2068623c0-1.75037295-1.366484-3.0313277-3.074092-3.0313277-1.708603 0-3.074093 1.28095475-3.074093 3.0313277 0 1.66484336 1.36549 2.94579811 3.074093 2.94579811 1.707608 0 3.074092-1.28095475 3.074092-2.94579811zm-16.514172 2.54699154h7.72551v-4.73893585h-22.968672v4.73893585h10.119343v23.78518146h5.123819zm-20.070612 3.87966186v1.3853804c-1.637991-1.17553455-3.6956733-1.84783689-6.0885127-1.84783689-5.5415216 0-9.9920437 4.61859769-9.9920437 10.41272999 0 5.7513675 4.4505221 10.3699652 9.9920437 10.3699652 2.3928394 0 4.4505217-.6713078 6.0885127-1.8468424v1.3853804h4.82745v-19.8587767zm0 6.5489806v6.759821c-1.386374 2.0576827-3.3167573 2.8125311-5.3744401 2.8125311-3.4012929 0-5.8776728-2.8960716-5.8776728-6.1710592 0-3.3167578 2.4763799-6.213824 5.8776728-6.213824 2.0576828 0 3.9880661.7558429 5.3744401 2.8125311zm-24.7299846 13.3097961h4.8702138v-10.958727c0-5.7513674-3.7792143-9.52958724-8.6494281-9.52958724-3.2749876 0-5.3734461 1.00745898-7.4728991 3.02237694-1.553456-1.93137744-3.8627548-3.02237694-6.46544-3.02237694-2.5201393 0-3.9890602.75484833-5.3326704 2.01491794v-1.3853804h-4.8702138v19.8587767h4.8702138v-13.4351069c1.3436102-1.8478369 2.8970662-2.64545 4.3242169-2.64545 3.0233714 0 4.7866732 1.9313774 4.7866732 5.4162108v10.6643461h4.8284436v-10.958727c0-.8393834-.084535-1.6369965-.2526106-2.3928394 1.3863749-2.0149179 3.0651417-2.7289905 4.5768274-2.7289905 3.0651417 0 4.7866733 1.9313774 4.7866733 5.4162108zm-32.7608155-26.2854301c0-1.75037295-1.3664843-3.0313277-3.0740925-3.0313277-1.7086027 0-3.0740925 1.28095475-3.0740925 3.0313277 0 1.66484336 1.3654898 2.94579811 3.0740925 2.94579811 1.7076082 0 3.0740925-1.28095475 3.0740925-2.94579811zm-15.9015415 26.2854301h4.8702138v-28.5499751h-4.8702138zm-3.4898061 0-11.1178518-14.2744903 11.1178518-14.2754848h-6.165092l-10.86921928 14.2744903 10.86921928 14.2754848zm-24.7210343 0h5.03828941v-28.5499751h-5.03828941zm38.6235704 0h4.8284435v-19.8587767h-4.8284435zm94.0566886-.0029836h4.909995v-19.86076575h-4.909995z" fill="#0c3451" fill-rule="evenodd" transform="translate(-1)"/></svg>