<?xml version="1.0" encoding="UTF-8"?>
<svg width="78px" height="90px" viewBox="0 0 78 90" version="1.1" xmlns="http://www.w3.org/2000/svg" xmlns:xlink="http://www.w3.org/1999/xlink">
    <title>handshake_FILL0_wght300_GRAD0_opsz48 Copy</title>
    <g id="Design" stroke="none" stroke-width="1" fill="none" fill-rule="evenodd">
        <g id="ts-website_ueber_uns_v_2" transform="translate(-742.000000, -2226.000000)" fill="#64942C" fill-rule="nonzero">
            <g id="Zusammen-leisten-wir-Copy" transform="translate(233.000000, 1987.000000)">
                <g id="Group-11" transform="translate(383.000000, 239.000000)">
                    <g id="handshake_FILL0_wght300_GRAD0_opsz48-Copy" transform="translate(126.000000, 0.000000)">
                        <path d="M39,15.8823529 C36.8588235,15.8823529 35.0044118,15.1150895 33.4367647,13.5805627 C31.8691176,12.0460358 31.0852941,10.1662404 31.0852941,7.94117647 C31.0852941,5.79283887 31.85,3.93222506 33.3794118,2.35933504 C34.9088235,0.786445013 36.7823529,1.07217446e-15 39,1.07217446e-15 C41.1411765,1.07217446e-15 42.9955882,0.786445013 44.5632353,2.35933504 C46.1308824,3.93222506 46.9147059,5.79283887 46.9147059,7.94117647 C46.9147059,10.1662404 46.15,12.0460358 44.6205882,13.5805627 C43.0911765,15.1150895 41.2176471,15.8823529 39,15.8823529 Z M28.2176471,90 L28.2176471,28.887468 C23.0176471,28.5038363 18.0852941,27.9859335 13.4205882,27.3337596 C8.75588235,26.6815857 4.28235294,25.8184143 0,24.7442455 L1.26176471,19.5652174 C7.53235294,21.0230179 13.7073529,22.0780051 19.7867647,22.730179 C25.8661765,23.3823529 32.2705882,23.7084399 39,23.7084399 C45.7294118,23.7084399 52.1338235,23.3823529 58.2132353,22.730179 C64.2926471,22.0780051 70.4676471,21.0230179 76.7382353,19.5652174 L78,24.7442455 C73.7176471,25.8184143 69.2441176,26.6815857 64.5794118,27.3337596 C59.9147059,27.9859335 54.9823529,28.5038363 49.7823529,28.887468 L49.7823529,90 L44.6205882,90 L44.6205882,60.1918159 L33.3794118,60.1918159 L33.3794118,90 L28.2176471,90 Z" id="Shape"></path>
                    </g>
                </g>
            </g>
        </g>
    </g>
</svg>