<?xml version="1.0" encoding="UTF-8"?>
<svg width="76px" height="68px" viewBox="0 0 76 68" version="1.1" xmlns="http://www.w3.org/2000/svg" xmlns:xlink="http://www.w3.org/1999/xlink">
    <title>handshake_FILL0_wght300_GRAD0_opsz48</title>
    <g id="Design" stroke="none" stroke-width="1" fill="none" fill-rule="evenodd">
        <g id="ts-website_ueber_uns_v_2" transform="translate(-360.000000, -2237.000000)">
            <g id="Zusammen-leisten-wir-Copy" transform="translate(233.000000, 1987.000000)">
                <g id="Group-12" transform="translate(0.000000, 239.000000)">
                    <g id="handshake_FILL0_wght300_GRAD0_opsz48" transform="translate(120.000000, 0.000000)">
                        <rect id="Rectangle" x="0" y="0" width="90" height="90"></rect>
                        <path d="M61.8,39.0375 C60.3375,40.5 57.9,40.5 56.4375,39.0375 L39.675,22.3125 L13.2375,48.7125 L10.7625,46.35 C6.375,41.9625 6.375,34.8375 10.7625,30.45 L26.6625,14.55 C31.05,10.1625 38.175,10.1625 42.5625,14.55 L61.8,33.75 C63.2625,35.2125 63.2625,37.575 61.8,39.0375 Z M64.425,31.0875 C67.35,34.0125 67.35,38.775 64.425,41.7 C59.6625,46.4625 54.6375,42.525 53.8125,41.7 L39.7125,27.6 L18.825,48.4875 C17.3625,49.95 17.3625,52.3125 18.825,53.775 C20.2875,55.2375 22.65,55.2375 24.15,53.775 L41.475,36.45 L44.1375,39.1125 L26.8125,56.4375 C25.35,57.9 25.35,60.2625 26.8125,61.725 C28.275,63.1875 30.6375,63.1875 32.1375,61.725 L49.4625,44.4 L52.125,47.0625 L34.8,64.3875 C33.3375,65.85 33.3375,68.2125 34.8,69.675 C36.2625,71.1375 38.625,71.1375 40.0875,69.675 L57.4125,52.35 L60.075,55.0125 L42.75,72.3375 C41.2875,73.8 41.2875,76.1625 42.75,77.625 C44.2125,79.0875 46.575,79.0875 48.0375,77.625 L79.2375,46.35 C83.625,41.9625 83.625,34.8375 79.2375,30.45 L63.3375,14.55 C59.025,10.2375 52.05,10.1625 47.6625,14.325 L64.425,31.0875 Z" id="Shape" fill="#64942C" fill-rule="nonzero"></path>
                    </g>
                </g>
            </g>
        </g>
    </g>
</svg>