<?xml version="1.0" encoding="UTF-8"?>
<svg width="62px" height="45px" viewBox="0 0 62 45" version="1.1" xmlns="http://www.w3.org/2000/svg" xmlns:xlink="http://www.w3.org/1999/xlink">
    <title>devices_FILL0_wght300_GRAD0_opsz48</title>
    <g id="Design" stroke="none" stroke-width="1" fill="none" fill-rule="evenodd">
        <g id="ts-website_karriere_v_2" transform="translate(-392.000000, -1886.000000)" fill="#000000" fill-rule="nonzero">
            <g id="Group-2" transform="translate(-20.000000, 786.000000)">
                <g id="Benefits" transform="translate(0.000000, 143.000000)">
                    <g id="b4" transform="translate(289.000000, 932.854922)">
                        <g id="devices_FILL0_wght300_GRAD0_opsz48" transform="translate(123.607692, 25.000000)">
                            <path d="M10.1666667,5.5 L55.9166667,5.5 L55.9166667,0 L10.1666667,0 C7.37083333,0 5.08333333,2.475 5.08333333,5.5 L5.08333333,35.75 L0,35.75 L0,44 L35.5833333,44 L35.5833333,35.75 L10.1666667,35.75 L10.1666667,5.5 Z M58.4583333,11 L43.2083333,11 C41.8104167,11 40.6666667,12.2375 40.6666667,13.75 L40.6666667,41.25 C40.6666667,42.7625 41.8104167,44 43.2083333,44 L58.4583333,44 C59.85625,44 61,42.7625 61,41.25 L61,13.75 C61,12.2375 59.85625,11 58.4583333,11 Z M55.9166667,35.75 L45.75,35.75 L45.75,16.5 L55.9166667,16.5 L55.9166667,35.75 Z" id="Shape"></path>
                        </g>
                    </g>
                </g>
            </g>
        </g>
    </g>
</svg>