<?xml version="1.0" encoding="UTF-8"?>
<svg width="92px" height="33px" viewBox="0 0 92 33" version="1.1" xmlns="http://www.w3.org/2000/svg" xmlns:xlink="http://www.w3.org/1999/xlink">
    <title>Group</title>
    <g id="Design" stroke="none" stroke-width="1" fill="none" fill-rule="evenodd">
        <g id="ts-website_karriere_v_2" transform="translate(-735.000000, -1601.000000)" fill="#000000" fill-rule="nonzero">
            <g id="Group-2" transform="translate(-20.000000, 786.000000)">
                <g id="Benefits" transform="translate(0.000000, 143.000000)">
                    <g id="b2" transform="translate(648.130035, 645.000000)">
                        <g id="Group" transform="translate(106.869965, 27.000000)">
                            <path d="M66.8301887,32.1315789 L81.055028,32.1315789 C83.0483176,32.1315789 86.5456347,31.8344536 88.7110721,29.9867053 C91.5197984,27.581847 92,25.0098556 92,23.3849513 C92,19.6523142 90.0973145,16.9039047 88.239931,15.4925593 C90.532214,13.6076704 91.220805,10.9428274 91.220805,9.05793848 C91.220805,7.76730024 90.6137576,0.868421053 79.8499939,0.868421053 L66.8301887,0.868421053 L66.8301887,32.1315789 Z M73.3174403,6.21667733 L81.0187865,6.21667733 C83.2657675,6.21667733 85.0416073,7.0709127 85.0416073,9.77289635 C85.0416073,12.2613212 83.4379152,13.3384005 80.674491,13.3384005 L73.3265007,13.3384005 L73.3265007,6.21667733 L73.3174403,6.21667733 Z M73.3174403,18.7052272 L82.142277,18.7052272 C83.3563714,18.7052272 85.8208022,18.8723602 85.8208022,22.3914385 C85.8208022,26.6811858 82.8761699,26.7647523 80.9372427,26.7647523 L73.3265007,26.7647523 L73.3265007,18.7052272 L73.3174403,18.7052272 Z" id="Shape"></path>
                            <path d="M37.3207547,32.1315789 L51.545594,32.1315789 C53.5388837,32.1315789 57.0362008,31.8344536 59.2016382,29.9867053 C62.0103645,27.581847 62.490566,25.0098556 62.490566,23.3849513 C62.490566,19.6523142 60.5878804,16.9039047 58.730497,15.4925593 C61.0227801,13.6076704 61.7113709,10.9428274 61.7113709,9.05793848 C61.7113709,7.76730024 61.1043236,0.868421053 50.34056,0.868421053 L37.3207547,0.868421053 L37.3207547,32.1315789 Z M43.8080063,6.21667733 L51.5093523,6.21667733 C53.7563333,6.21667733 55.5321733,7.0709127 55.5321733,9.77289635 C55.5321733,12.2613212 53.928481,13.3384005 51.1650568,13.3384005 L43.8170667,13.3384005 L43.8170667,6.21667733 L43.8080063,6.21667733 Z M43.8080063,18.7052272 L52.6328428,18.7052272 C53.8469375,18.7052272 56.3113683,18.8723602 56.3113683,22.3914385 C56.3113683,26.6811858 53.3667359,26.7647523 51.4278088,26.7647523 L43.8170667,26.7647523 L43.8170667,18.7052272 L43.8080063,18.7052272 Z" id="Shape"></path>
                            <polygon id="Path" points="22.7340639 0.886486272 22.7340639 0.868421053 11.2830189 13.0263158 18.9541073 13.0263158 30.3773585 0.886486272"></polygon>
                            <path d="M28.3123473,5.86336802 L23.9968809,10.6969356 C25.1615151,12.3761597 25.8025153,14.3800956 25.8025153,16.4953613 C25.8025153,19.1765533 24.7913602,21.6907508 22.9496131,23.5833568 C21.1078659,25.4759629 18.6612314,26.5243184 16.0520897,26.5243184 C13.442948,26.5243184 10.9963134,25.4759629 9.15456634,23.5833568 C7.31281926,21.6907508 6.30166402,19.1765533 6.30166402,16.4953613 C6.30166402,11.030925 10.5810175,6.56845658 15.8805544,6.47568177 L20.954387,0.797863374 C19.3834852,0.287601903 17.7403579,0 16.0520897,0 C7.20448121,0 0,7.40342987 0,16.4953613 C0,20.9021647 1.67021182,25.0491988 4.70367758,28.1664324 C7.73714335,31.283666 11.763708,33 16.0611179,33 C20.3494996,33 24.3760642,31.283666 27.4095299,28.1664324 C30.4429959,25.0491988 32.1132075,20.9114422 32.1132075,16.5046388 C32.1041794,12.5617093 30.7589819,8.84143943 28.3123473,5.86336802" id="Path"></path>
                        </g>
                    </g>
                </g>
            </g>
        </g>
    </g>
</svg>