<?xml version="1.0" encoding="UTF-8"?>
<svg width="40px" height="40px" viewBox="0 0 40 40" version="1.1" xmlns="http://www.w3.org/2000/svg" xmlns:xlink="http://www.w3.org/1999/xlink">
    <title>Shape</title>
    <g id="Design" stroke="none" stroke-width="1" fill="none" fill-rule="evenodd">
        <g id="ts-website_karriere_v_2" transform="translate(-401.000000, -1598.000000)" fill="#000000">
            <g id="Group-2" transform="translate(-20.000000, 786.000000)">
                <g id="Benefits" transform="translate(0.000000, 143.000000)">
                    <g id="b1" transform="translate(289.000000, 642.000000)">
                        <g id="schedule_FILL0_wght300_GRAD0_opsz48" transform="translate(132.000000, 27.000000)">
                            <path d="M19.98,0 C8.94,0 0,8.96 0,20 C0,31.04 8.94,40 19.98,40 C31.04,40 40,31.04 40,20 C40,8.96 31.04,0 19.98,0 Z M20,36 C11.16,36 4,28.84 4,20 C4,11.16 11.16,4 20,4 C28.84,4 36,11.16 36,20 C36,28.84 28.84,36 20,36 Z M21,10 L18,10 L18,22 L28.5,28.3 L30,25.84 L21,20.5 L21,10 Z" id="Shape"></path>
                        </g>
                    </g>
                </g>
            </g>
        </g>
    </g>
</svg>