<?xml version="1.0" encoding="UTF-8"?>
<svg width="50px" height="90px" viewBox="0 0 50 90" version="1.1" xmlns="http://www.w3.org/2000/svg" xmlns:xlink="http://www.w3.org/1999/xlink">
    <title>Shape</title>
    <g id="Design" stroke="none" stroke-width="1" fill="none" fill-rule="evenodd">
        <g id="ts-website_ueber_uns_v_2" transform="translate(-1136.000000, -2227.000000)" fill="#64942C">
            <g id="Zusammen-leisten-wir-Copy" transform="translate(233.000000, 1987.000000)">
                <g id="Group-10" transform="translate(763.000000, 240.000000)">
                    <path d="M182.748222,25 C182.38719,33.411616 179.581489,41.9926825 174.331118,50.7431998 C169.080747,59.4937169 163.090472,68.0462717 156.360292,76.4008642 C164.68576,68.8569129 171.262185,61.1065752 176.089567,53.1498513 C180.91695,45.1931272 183.851429,35.8098435 184.893004,25 C188.297668,32.3262253 190,39.961382 190,47.9054701 C190,59.8216022 187.74428,68.3386793 176.089567,77.7869245 C164.434854,87.2351697 157.127607,86.8074932 140,90 C145.876257,83.3729606 145.73126,72.4108384 145.876257,63.9525669 C146.021253,55.4942951 143.664814,44.0520091 154.609628,35.2933919 C161.906171,29.4543139 171.285702,26.0231833 182.748222,25 Z M182.493908,25 C182.995567,21.1600626 183.210224,17.3363832 183.13788,13.5289619 C183.065535,9.72154059 182.397291,6.14554862 181.133146,2.80098598 C179.745474,2.05347913 179.632329,1.18911877 180.793711,0.207904904 C182.362074,-0.362301404 183.053506,0.240391148 182.868007,2.01598257 C184.289336,5.65282564 185,9.4904854 185,13.5289619 C185,17.5674384 184.822024,21.3911177 184.466071,25 L182.493908,25 Z" id="Shape"></path>
                </g>
            </g>
        </g>
    </g>
</svg>