<?xml version="1.0" encoding="UTF-8"?>
<svg width="31px" height="45px" viewBox="0 0 31 45" version="1.1" xmlns="http://www.w3.org/2000/svg" xmlns:xlink="http://www.w3.org/1999/xlink">
    <title>where_to_vote_FILL0_wght300_GRAD0_opsz48</title>
    <g id="Design" stroke="none" stroke-width="1" fill="none" fill-rule="evenodd">
        <g id="ts-website_karriere_v_2" transform="translate(-764.000000, -1886.000000)" fill="#000000" fill-rule="nonzero">
            <g id="Group-2" transform="translate(-20.000000, 786.000000)">
                <g id="Benefits" transform="translate(0.000000, 143.000000)">
                    <g id="b5" transform="translate(649.000000, 932.854922)">
                        <g id="where_to_vote_FILL0_wght300_GRAD0_opsz48" transform="translate(135.000000, 25.000000)">
                            <path d="M15.5,0 C6.93071429,0 0,6.886 0,15.4 C0,26.95 15.5,44 15.5,44 C15.5,44 31,26.95 31,15.4 C31,6.886 24.0692857,0 15.5,0 Z M15.5,20.9 C12.4442857,20.9 9.96428571,18.436 9.96428571,15.4 C9.96428571,12.364 12.4442857,9.9 15.5,9.9 C18.5557143,9.9 21.0357143,12.364 21.0357143,15.4 C21.0357143,18.436 18.5557143,20.9 15.5,20.9 Z" id="Shape"></path>
                        </g>
                    </g>
                </g>
            </g>
        </g>
    </g>
</svg>