<?xml version="1.0" encoding="UTF-8"?>
<svg width="36px" height="48px" viewBox="0 0 36 48" version="1.1" xmlns="http://www.w3.org/2000/svg" xmlns:xlink="http://www.w3.org/1999/xlink">
    <title>lock_FILL0_wght300_GRAD0_opsz48</title>
    <g id="Design" stroke="none" stroke-width="1" fill="none" fill-rule="evenodd">
        <g id="ts-website_karriere_v_2" transform="translate(-1122.000000, -1884.000000)" fill="#000000" fill-rule="nonzero">
            <g id="Group-2" transform="translate(-20.000000, 786.000000)">
                <g id="Benefits" transform="translate(0.000000, 143.000000)">
                    <g id="b6" transform="translate(1009.000000, 932.854922)">
                        <g id="lock_FILL0_wght300_GRAD0_opsz48" transform="translate(133.000000, 23.000000)">
                            <path d="M31.5,15.6666667 L29.25,15.6666667 L29.25,11.1904762 C29.25,5.01333333 24.21,0 18,0 C11.79,0 6.75,5.01333333 6.75,11.1904762 L6.75,15.6666667 L4.5,15.6666667 C2.025,15.6666667 0,17.6809524 0,20.1428571 L0,42.5238095 C0,44.9857143 2.025,47 4.5,47 L31.5,47 C33.975,47 36,44.9857143 36,42.5238095 L36,20.1428571 C36,17.6809524 33.975,15.6666667 31.5,15.6666667 Z M18,35.8095238 C15.525,35.8095238 13.5,33.7952381 13.5,31.3333333 C13.5,28.8714286 15.525,26.8571429 18,26.8571429 C20.475,26.8571429 22.5,28.8714286 22.5,31.3333333 C22.5,33.7952381 20.475,35.8095238 18,35.8095238 Z M24.975,15.6666667 L11.025,15.6666667 L11.025,11.1904762 C11.025,7.36333333 14.1525,4.25238095 18,4.25238095 C21.8475,4.25238095 24.975,7.36333333 24.975,11.1904762 L24.975,15.6666667 Z" id="Shape"></path>
                        </g>
                    </g>
                </g>
            </g>
        </g>
    </g>
</svg>