<svg enable-background="new 0 0 250.8 100.8" viewBox="0 0 250.8 100.8" xmlns="http://www.w3.org/2000/svg"><g fill="#575756"><path d="m117.5 81.7h13.3c6.9 0 10.5-4.2 10.5-8.9 0-2.9-1.4-5.5-4-7.1 1.9-1.5 2.9-3.5 2.9-5.7 0-3.9-3.2-7-10.1-7h-12.5v28.7zm9-17.6v-4.9h2c1.7 0 2.5.9 2.5 2.2 0 1.2-.6 2.3-1.8 2.7zm0 11.4v-5.6h2.4c2.1 0 3.1 1 3.1 2.6 0 1.7-1.1 2.9-3.1 2.9h-2.4zm18.4 6.2h9.1v-10.3h.8c1.5 0 1.8 1.1 2.6 3.3l2.4 7h9v-.7l-3.1-7.9c-.8-2-1.6-3.2-2.7-3.7 3.1-1.6 4.8-4.5 4.8-7.6 0-5-3.6-8.7-10.6-8.7h-12.3zm9.1-16.5v-5.7h1.5c2.1 0 3.1 1.1 3.1 2.7 0 1.8-1 3-3.1 3zm17.9 6.4c0 8.1 5 10.6 12 10.6 6.9 0 12.1-2.6 12.1-10.6v-18.6h-9.1v18.1c0 2.6-.8 3.8-3 3.8-1.8 0-2.9-1.2-2.9-3.8v-18.1h-9.1zm27.9-4.2c0 10.8 5.8 14.8 13.7 14.8 2.8 0 5.5-.5 8.3-1.8l-1.5-6.1h-.9c-1.7.7-2.9 1.1-4.5 1.1-3.4 0-5.8-2.4-5.8-8.1 0-5.4 2.8-7.8 6.1-7.8 1.2 0 2.4.1 3.8.5h.9l1.6-6.2c-2.5-.9-4.9-1.3-7.3-1.3-7.7 0-14.4 4.4-14.4 14.9zm35.2-.4 6.6 14.7h9.2v-.9l-6.6-14.1 6.3-12.7v-1h-8.9zm-9.4 14.7h9.1v-28.7h-9.1z"/><path d="m117.5 47.4h9.1v-28.6h-9.1zm14.3 0h9v-11l.6 1 6.7 9.9h7.8v-28.5h-8.9v11.1l-.6-1-6.7-10h-7.8v28.5zm29.9 0h9v-11l.6 1 6.7 9.9h7.8v-28.5h-8.9v11.1l-.6-1-6.7-10h-7.8v28.5zm27.8-1.8c2.4 1.4 5.9 2.4 9.6 2.4 7.5 0 12.2-3.5 12.2-9.9 0-10.6-12.2-8-12.2-11.6 0-1.1 1-1.7 3-1.7 1.6 0 3.4.4 4.9 1.2h.9l2.5-5.5c-2.3-1.4-5.7-2.2-9-2.2-6.6 0-11.3 3.4-11.3 9.2 0 11 12.3 8.1 12.3 11.9 0 1.5-1.4 2.2-3.4 2.2s-4.3-.5-6.3-1.6h-.7zm24.2-16h.9l3.5-.5 3.3-10.3v-.9l-6 1-1.6 9.9v.8z"/><path d="m90 100.4h-80.1c-5.5 0-9.9-4.4-9.9-9.9v-80.2c0-5.5 4.4-9.9 9.9-9.9h80.1c5.5 0 9.9 4.4 9.9 9.9v80.1c.1 5.6-4.4 10-9.9 10zm-80.1-97.5c-4.1 0-7.5 3.3-7.5 7.5v80.1c0 4.1 3.3 7.5 7.5 7.5h80.1c4.1 0 7.5-3.3 7.5-7.5v-80.2c0-4.1-3.3-7.5-7.5-7.5h-80.1z"/><path d="m67.5 35.2c-.1 0-.1 0 0 0-.2 0-.2-.1-.2-.2 0-.3 0-.6-.1-.9-.4-1.1-1.5-1.6-1.6-1.6l-28.9-12.6c-.1 0-.2-.2-.1-.3 0-.1.2-.2.3-.1l31.8 8.5c.6.1 1.4.6 1.7 1.4.3.9.1 2-.8 3.1-.8 1.1-1.5 1.9-2 2.6 0 .1-.1.1-.1.1z"/><path d="m63.1 40.9c-.2-.1-.2-.1-.2-.2 0-.4 0-.9-.2-1.3-.4-1.1-1.4-1.5-1.5-1.6l-22.8-10.3c-.1 0-.2-.2-.1-.3 0-.1.1-.2.3-.1l25.9 6.5c.6.2 1.4.6 1.7 1.5s0 1.9-.8 3c-.9 1.1-1.5 2-2 2.6-.1.1-.2.2-.3.2z"/><path d="m59.3 45.9c-.1 0-.1 0 0 0-.2 0-.2-.1-.2-.2 0-.4 0-.7-.2-1-.5-1.2-1.7-1.7-1.8-1.7l-16.8-8c-.1 0-.2-.2-.1-.3 0-.1.1-.2.3-.1l19.6 4.6c.6.1 1.4.6 1.7 1.5s.1 2-.8 3.1c-.7.9-1.2 1.5-1.5 2-.1.1-.2.1-.2.1z"/><path d="m26.6 67.7h-6.4c-.1 0-.2 0-.2-.1-.1-.1-.1-.2-.1-.3l5.3-19.5c0-.1.2-.2.3-.2h6.4c.1 0 .2 0 .2.1.1.1.1.2.1.3l-5.3 19.5c0 .1-.2.2-.3.2z"/><path d="m44.3 67.7h-8.2c-.1 0-.3-.1-.3-.3l-3.3-19.5c0-.1 0-.2.1-.2.1-.1.1-.1.2-.1h6.4c.2 0 .3.1.3.3l1.7 14.9h.1l10-15c.1-.1.2-.1.3-.1h6.8c.1 0 .2.1.3.2s0 .2 0 .3l-14.1 19.3c-.1.1-.2.2-.3.2z"/><path d="m54 67.7c-.1 0-.2 0-.2-.1-.1-.1-.1-.2-.1-.3l5.3-19.5c0-.1.2-.2.3-.2h11.4c1.6 0 7 .3 7 4.6 0 2.8-2.4 4.7-6.3 5.1v.1h.1c3.1.4 4.8 1.8 4.8 3.9 0 4.6-5.6 6.3-10.8 6.4zm7.7-3.8h.1 1.7c3.9 0 5.9-.9 5.9-2.7 0-1.7-1.5-2-4.8-2h-1.6c-.1 0-.2.1-.2.1l-1.2 4.4s0 .1.1.2zm3.5-12.5c-.2 0-.3.1-.3.2l-1 3.7v.1h.1 2.5c2.9 0 4.6-.9 4.6-2.3 0-1.6-1.6-1.9-4.3-1.9h-1.6z"/><path clip-rule="evenodd" d="m79.4 51.4c.9 0 1.6-.7 1.6-1.6s-.7-1.6-1.6-1.6-1.6.7-1.6 1.6c0 .8.8 1.6 1.6 1.6zm0-.3c-.7 0-1.2-.5-1.2-1.3s.5-1.3 1.2-1.3 1.2.5 1.2 1.3c0 .7-.5 1.3-1.2 1.3zm-.6-.4h.3v-.8h.2l.5.8h.3l-.5-.8c.3 0 .5-.2.5-.5 0-.4-.2-.5-.7-.5h-.7v1.8zm.4-1.6h.3c.2 0 .4 0 .4.2s-.2.3-.4.3h-.3z" fill-rule="evenodd"/></g></svg>