<svg height="77" viewBox="0 0 221 77" width="221" xmlns="http://www.w3.org/2000/svg"><g fill="#e2002a" transform="translate(.4)"><path d="m160.402822 75.1152572h33.907692c4.751397 0 13.087938-.6911122 18.249682-4.9889662 6.695149-5.5936893 7.839804-11.5761293 7.839804-15.3556492 0-8.682097-4.535424-15.0748848-8.962861-18.3576678 5.464105-4.384243 7.105497-10.5826555 7.105497-14.9668985 0-3.0020187-1.447016-19.04878006-27.104557-19.04878006h-31.035257zm15.463636-60.2779422h18.357667c5.35612 0 9.589182 1.9869476 9.589182 8.2717492 0 5.7880647-3.822714 8.2933464-10.409877 8.2933464h-17.515375v-16.5650956zm0 29.0483097h21.035727c2.894033 0 8.768486.3887506 8.768486 8.5741107 0 9.9779324-7.019108 10.1723077-11.640921 10.1723077h-18.141695v-18.7464184z"/><path d="m88.9806957 75.1152572h33.9076923c4.751396 0 13.087937-.6911122 18.249682-4.9889662 6.695149-5.5936893 7.839804-11.5761293 7.839804-15.3556492 0-8.682097-4.535424-15.0748848-8.962862-18.3576678 5.464106-4.384243 7.105498-10.5826555 7.105498-14.9668985 0-3.0020187-1.447017-19.04878006-27.104557-19.04878006h-31.0352573zm15.4636353-60.2779422h18.357668c5.35612 0 9.589182 1.9869476 9.589182 8.2717492 0 5.7880647-3.822715 8.2933464-10.409878 8.2933464h-17.515375v-16.5650956zm0 29.0483097h21.035728c2.894032 0 8.768486.3887506 8.768486 8.5741107 0 9.9779324-7.019108 10.1723077-11.640921 10.1723077h-18.141696v-18.7464184z"/><path d="m54.9434199 2.4188927v-.04319451l-26.6942087 29.06990691h17.8825281l26.629417-29.0267124z"/><path d="m67.7289956 13.6494659-10.3234885 11.2521706c2.7860461 3.9091033 4.3194513 8.5741107 4.3194513 13.4982851 0 6.2416071-2.4188927 12.0944635-6.824733 16.5003038s-10.2586967 6.8463302-16.5003038 6.8463302c-6.241607 0-12.0944635-2.4404899-16.5003038-6.8463302-4.4058402-4.4058403-6.8247329-10.2586967-6.8247329-16.5003038 0-12.7207839 10.2370994-23.1090642 22.9146888-23.3250367l12.137658-13.21752086c-3.7579225-1.1878491-7.6886232-1.85736404-11.7273101-1.85736404-21.1653111 0-38.3999216 17.2346105-38.3999216 38.3999216 0 10.2586967 3.99549241 19.9126703 11.2521705 27.1693484 7.2566781 7.2566781 16.8890544 11.2521705 27.1693484 11.2521705 10.2586967 0 19.891073-3.9954924 27.1477511-11.2521705s11.2521705-16.8890544 11.2521705-27.1477511c-.0215973-9.1788339-3.2395885-17.8393337-9.0924449-24.772053"/></g></svg>