<svg height="15" viewBox="0 0 19 15" width="19" xmlns="http://www.w3.org/2000/svg"><path d="m10.7711631 2.63637036c.1369907.04812963.2732861.05301235.4088861.01464815.292757-.13532099.3998462-.35853086.3212677-.66823457l3.39-1.16278395 1.9575077 5.69603704h-3.7988861v-.02859877s-.0097354-.01953086-.0292062-.05789506c-.0591077-.23227778-.2239138-.34876543-.4965046-.34876543-.1362954 0-.2482523.03975926-.3358708.11648765-.0869231.07742593-.1307323.18414815-.1307323.31946914h-9.2924246v4.94061114l-1.95750769-5.87111731 9.70061539-3.22608025c.0389415.13532099.12656.22739506.2628554.27622222zm1.0820184 1.30787037c.0959631-.08719135.1460308-.19879629.1460308-.33411728 0-.15554938-.0500677-.28598765-.1460308-.39201235-.0987446-.10672222-.2155692-.15973456-.3518646-.15973456-.1738461 0-.3066646.05231481-.3935877.15973456-.0876184.10672223-.132123.24692593-.132123.42130865 0 .11648765.0584123.21832716.1752369.30551851.1168246.08719136.2433846.13043828.37968.13043828.1168246-.00069753.2239138-.04394445.3226584-.13113581zm.5104123 1.51154939c.1070893-.1060247.1599385-.2371605.1599385-.39201235 0-.13532099-.0486769-.24692593-.14464-.33411728-.0987446-.08719136-.2155692-.13113581-.3511692-.13113581-.1550708 0-.2816308.04812963-.3803754.14508642-.0966585.09695679-.1460308.21344445-.1460308.34876544 0 .13601851.0493723.25738888.1460308.36341358.0987446.10672222.2141785.15973456.3518646.15973456.1356 0 .2572923-.05370987.3643815-.15973456zm1.3879877 2.01935185c.0959631.09695679.2141785.14578395.3497785.14578395.1369908 0 .25312-.04882716.3511692-.14578395.0973539-.09695679.1460308-.21344445.1460308-.34876543h3.5937477v6.24917896h-3.5930523c0-.1562469-.0486769-.2818024-.1460308-.3780617-.0980492-.0976543-.2141784-.1450864-.3511692-.1450864-.1356 0-.2538154.0474321-.3497785.1450864-.0980492.0955617-.1460307.2218148-.1460307.3780617h-10.22702158v-6.24917896h10.22632618c0 .13532098.0486769.25180864.1460307.34876543zm.7009477 1.48225308c.0973539-.09625925.1460308-.21274691.1460308-.34876543 0-.13532099-.0486769-.25738889-.1460308-.36341358-.0980492-.10741975-.2141784-.1604321-.3511692-.1604321-.1356 0-.2538154.05301235-.3497785.1604321-.0980492.10602469-.1460307.22739506-.1460307.36341358s.0479815.25180864.1460307.34876543c.0959631.09695679.2141785.14508642.3497785.14508642.1369908.00069754.25312-.04812963.3511692-.14508642zm.0146031 1.61269135c.0876185-.0864938.1314277-.2078642.1314277-.362716 0-.135321-.0486769-.25180868-.1460308-.34876547-.0980492-.09695679-.2141784-.14508642-.3511692-.14508642-.1356 0-.2538154.04812963-.3497785.14508642-.0980492.09695679-.1460307.21344447-.1460307.34876547 0 .1548518.0431138.2762222.1314277.362716.0876184.0878889.2093107.1311358.3643815.1311358.1571569.0006975.2788492-.0432469.3657723-.1311358zm-.0146031 1.6566358c.0973539-.1060247.1460308-.2364629.1460308-.3927099 0-.1541543-.0486769-.2804074-.1460308-.3773642-.0980492-.0962592-.2141784-.1450864-.3511692-.1450864-.1356 0-.2538154.0488272-.3497785.1450864-.0980492.0969568-.1460307.2232099-.1460307.3773642 0 .156247.0479815.2866852.1460307.3927099.0959631.1067222.2141785.1597346.3497785.1597346.1369908.0006975.25312-.0530124.3511692-.1597346z" fill="#fff"/></svg>